name analog
datacolumns 19
datarows 37
range 0.0 0.018000000000000002
endheader
time	ground_force_vx	ground_force_vy	ground_force_vz	ground_force_px	ground_force_py	ground_force_pz	l_ground_force_vx	l_ground_force_vy	l_ground_force_vz	l_ground_force_px	l_ground_force_py	l_ground_force_pz	ground_torque_x	ground_torque_y	ground_torque_z	l_ground_torque_x	l_ground_torque_y	l_ground_torque_z
0.0	-0.0	-0.0	-0.0	3.55115818977356	63.9542236328125	-400.5060424804688	41.93023681640625	-32.81667709350586	-392.3331909179688	-0.0	-0.0	-0.0	-0.0	-0.0	-0.0	103862.953125	-25304.251953125	17250.142578125
0.0005	-0.0	-0.0	-0.0	-0.1393547356128692	65.07363891601562	-400.8257446289063	41.98125457763672	-36.01428985595703	-394.5768432617188	-0.0	-0.0	-0.0	-0.0	-0.0	-0.0	104114.1484375	-23840.6875	16350.01171875
0.001	-0.0	-0.0	-0.0	-2.3277995586395264	64.94825744628906	-400.5390319824219	38.24671173095703	-42.60646438598633	-404.73675537109375	-0.0	-0.0	-0.0	-0.0	-0.0	-0.0	105835.2265625	-21601.49609375	14443.7646484375
0.0015	-0.0	-0.0	-0.0	-3.1223678588867188	64.70055389404297	-401.8417053222656	31.477014541625977	-50.05485153198242	-417.42376708984375	-0.0	-0.0	-0.0	-0.0	-0.0	-0.0	108420.0546875	-19491.228515625	11804.32421875
0.002	-0.0	-0.0	-0.0	-3.75477933883667	64.37156677246094	-401.8277587890625	24.23141288757324	-56.50410079956055	-430.3413391113281	-0.0	-0.0	-0.0	-0.0	-0.0	-0.0	110721.0390625	-16878.23828125	9450.6748046875
0.0025	-0.0	-0.0	-0.0	-4.262697219848633	65.16214752197266	-404.314208984375	19.4302921295166	-58.99888610839844	-442.3316955566406	-0.0	-0.0	-0.0	-0.0	-0.0	-0.0	113392.4140625	-13785.1865234375	7780.9931640625
0.003	-0.0	-0.0	-0.0	-4.976419925689697	66.3710708618164	-404.5908508300781	15.31117820739746	-60.1856689453125	-450.9396057128906	-0.0	-0.0	-0.0	-0.0	-0.0	-0.0	114609.140625	-10598.9541015625	6183.41943359375
0.0035	-0.0	-0.0	-0.0	-5.441841125488281	66.62647247314453	-403.5316467285156	10.166377067565918	-61.44135284423828	-455.1729736328125	-0.0	-0.0	-0.0	-0.0	-0.0	-0.0	115261.359375	-7367.041015625	4386.80419921875
0.004	-0.0	-0.0	-0.0	-5.670845985412598	67.88612365722656	-400.7536315917969	5.808329105377197	-63.34589385986328	-460.531005859375	-0.0	-0.0	-0.0	-0.0	-0.0	-0.0	115488.15625	-4167.20751953125	2718.2939453125
0.0045000000000000005	-0.0	-0.0	-0.0	-4.988626956939697	68.38227844238281	-396.5731201171875	2.2717225551605225	-64.41722106933594	-463.9465942382813	-0.0	-0.0	-0.0	-0.0	-0.0	-0.0	115357.6171875	-1005.960205078125	1027.3587646484375
0.005	-0.0	-0.0	-0.0	-4.945049285888672	68.66885375976562	-395.686279296875	-1.3264939785003662	-63.88740158081055	-467.5898132324219	-0.0	-0.0	-0.0	-0.0	-0.0	-0.0	115735.6796875	2144.563720703125	-157.66018676757812
0.0055	-0.0	-0.0	-0.0	-4.549736022949219	68.80181884765625	-393.3392639160156	-4.28477668762207	-62.70839691162109	-468.0902099609375	-0.0	-0.0	-0.0	-0.0	-0.0	-0.0	115530.0546875	5043.8203125	-1214.451416015625
0.006	-0.0	-0.0	-0.0	-3.804365158081055	68.90445709228516	-387.8938903808594	-6.344082832336426	-62.72750473022461	-469.2127685546875	-0.0	-0.0	-0.0	-0.0	-0.0	-0.0	115158.9375	7722.29931640625	-2353.490234375
0.006500000000000001	-0.0	-0.0	-0.0	-3.778644800186157	68.80220794677734	-386.78216552734375	-8.060574531555176	-63.34571838378906	-470.156494140625	-0.0	-0.0	-0.0	-0.0	-0.0	-0.0	114364.09375	10581.6455078125	-3227.894287109375
0.007	-0.0	-0.0	-0.0	-3.657630920410156	68.9869384765625	-385.4454956054688	-10.069510459899902	-65.04285430908203	-467.3907165527344	-0.0	-0.0	-0.0	-0.0	-0.0	-0.0	113733.6796875	12826.2802734375	-4101.00830078125
0.0075	-0.0	-0.0	-0.0	-4.077859878540039	68.43925476074219	-384.0576477050781	-12.90798568725586	-65.71133422851562	-467.239990234375	-0.0	-0.0	-0.0	-0.0	-0.0	-0.0	112696.1171875	14970.7841796875	-5212.9482421875
0.008	-0.0	-0.0	-0.0	-3.6005234718322754	68.50324249267578	-381.00579833984375	-15.75896453857422	-66.17191314697266	-465.4448852539063	-0.0	-0.0	-0.0	-0.0	-0.0	-0.0	111880.6953125	17608.55078125	-6306.4375
0.0085	-0.0	-0.0	-0.0	-3.714632511138916	68.3498306274414	-381.1105346679688	-17.97662925720215	-66.52516174316406	-464.6459655761719	-0.0	-0.0	-0.0	-0.0	-0.0	-0.0	111046.390625	19409.513671875	-7382.1357421875
0.009000000000000001	-0.0	-0.0	-0.0	-4.384626388549805	68.25493621826172	-376.0615234375	-19.630319595336918	-66.5567398071289	-464.2969055175781	-0.0	-0.0	-0.0	-0.0	-0.0	-0.0	110312.265625	21387.142578125	-8355.849609375
0.0095	-0.0	-0.0	-0.0	-4.43612003326416	67.3123779296875	-374.4990234375	-21.57567405700684	-65.87512969970703	-462.8766479492188	-0.0	-0.0	-0.0	-0.0	-0.0	-0.0	109769.109375	22953.625	-8950.3017578125
0.01	-0.0	-0.0	-0.0	-4.155099868774414	66.47240447998047	-369.8542175292969	-22.46860122680664	-65.32038879394531	-460.7312316894531	-0.0	-0.0	-0.0	-0.0	-0.0	-0.0	109166.6015625	24199.61328125	-9656.369140625
0.0105	-0.0	-0.0	-0.0	-4.511986255645752	65.6085205078125	-367.6398620605469	-23.08944320678711	-64.88455200195312	-460.4566345214844	-0.0	-0.0	-0.0	-0.0	-0.0	-0.0	108608.75	25823.501953125	-10006.3369140625
0.011	-0.0	-0.0	-0.0	-4.633976459503174	64.87203979492188	-364.53662109375	-23.74789428710937	-64.77181243896484	-459.9811096191406	-0.0	-0.0	-0.0	-0.0	-0.0	-0.0	108205.953125	26937.951171875	-10345.677734375
0.0115	-0.0	-0.0	-0.0	-4.474546909332275	63.474857330322266	-359.481689453125	-24.69386482238769	-64.91644287109375	-459.4835205078125	-0.0	-0.0	-0.0	-0.0	-0.0	-0.0	108077.453125	27632.857421875	-10700.5224609375
0.012	-0.0	-0.0	-0.0	-4.624859809875488	62.48979949951172	-355.1502990722656	-24.39546585083008	-65.21358489990234	-459.9391174316406	-0.0	-0.0	-0.0	-0.0	-0.0	-0.0	107448.0390625	28497.328125	-10873.8623046875
0.0125	-0.0	-0.0	-0.0	-4.87809419631958	61.43930816650391	-351.9720153808594	-24.69911766052246	-64.93511962890625	-457.1671142578125	-0.0	-0.0	-0.0	-0.0	-0.0	-0.0	107190.7421875	29364.59375	-10903.64453125
0.013000000000000001	-0.0	-0.0	-0.0	-4.62454891204834	60.21477890014648	-348.0873107910156	-24.717761993408203	-65.3070068359375	-457.4974365234375	-0.0	-0.0	-0.0	-0.0	-0.0	-0.0	106753.1484375	30141.07421875	-11050.4091796875
0.0135	-0.0	-0.0	-0.0	-5.2779059410095215	59.839637756347656	-347.36456298828125	-24.87641716003418	-65.67887115478516	-455.0181579589844	-0.0	-0.0	-0.0	-0.0	-0.0	-0.0	106639.8828125	30746.998046875	-11149.0849609375
0.014	-0.0	-0.0	-0.0	-4.836009979248047	59.81049728393555	-346.88067626953125	-25.231184005737305	-66.24127197265625	-455.9920043945313	-0.0	-0.0	-0.0	-0.0	-0.0	-0.0	106341.5234375	31612.42578125	-11355.4892578125
0.0145	-0.0	-0.0	-0.0	-4.80975341796875	59.449981689453125	-344.5128173828125	-25.98786163330078	-66.52040100097656	-458.78521728515625	-0.0	-0.0	-0.0	-0.0	-0.0	-0.0	106622.953125	32339.6953125	-11676.1357421875
0.015	-0.0	-0.0	-0.0	-4.70587968826294	59.23828125	-345.33642578125	-27.12689971923828	-66.93358612060547	-460.8069152832031	-0.0	-0.0	-0.0	-0.0	-0.0	-0.0	107439.4140625	32999.640625	-12092.3330078125
0.0155	-0.0	-0.0	-0.0	-4.475566387176514	58.61075210571289	-344.9833984375	-28.24715232849121	-67.90497589111328	-464.9968872070313	-0.0	-0.0	-0.0	-0.0	-0.0	-0.0	108093.2578125	33903.21484375	-12421.025390625
0.016	-0.0	-0.0	-0.0	-4.638946533203125	58.666290283203125	-344.970458984375	-29.79220390319824	-68.96468353271484	-469.275146484375	-0.0	-0.0	-0.0	-0.0	-0.0	-0.0	109128.2578125	34565.44140625	-12865.95703125
0.0165	-0.0	-0.0	-0.0	-4.3375091552734375	59.19791412353516	-343.4371337890625	-31.2261962890625	-69.8992691040039	-473.7259826660156	-0.0	-0.0	-0.0	-0.0	-0.0	-0.0	110057.828125	35320.88671875	-13241.7060546875
0.017	-0.0	-0.0	-0.0	-4.906578063964844	58.63238143920898	-345.8973083496094	-32.00973129272461	-70.76763916015625	-476.4466552734375	-0.0	-0.0	-0.0	-0.0	-0.0	-0.0	110710.1953125	36024.76171875	-13650.3623046875
0.0175	-0.0	-0.0	-0.0	-4.426526546478272	58.97316360473633	-343.1451721191406	-33.25152587890625	-71.17232513427734	-478.80511474609375	-0.0	-0.0	-0.0	-0.0	-0.0	-0.0	111064.390625	36594.28125	-13949.1396484375
0.018000000000000002	-0.0	-0.0	-0.0	-4.387065410614014	59.05937194824219	-344.13232421875	-34.06494140625	-72.12541198730469	-480.4452819824219	-0.0	-0.0	-0.0	-0.0	-0.0	-0.0	111264.03125	37027.203125	-14234.2529296875
